<svg width="1261" height="440" viewBox="0 0 1261 440" fill="none" xmlns="http://www.w3.org/2000/svg">
<g clip-path="url(#clip0_420_17939)">
<path d="M252.227 109.728C252.378 108.708 255.856 84.2406 255.138 75.3673C254.949 73.1396 253.021 71.5537 250.828 71.7425C248.635 71.9691 247.009 73.9325 247.16 76.1225C247.69 82.7303 245.27 101.874 244.287 108.67C239.561 141.294 223.455 190.644 201.148 240.636C190.297 264.953 178.501 288.25 167.007 308.035C154.644 329.256 143.036 345.869 132.488 357.461C120.919 370.148 111.353 379.21 104.056 384.459C95.4735 390.613 92.3354 389.858 91.5415 389.48C89.9157 388.688 88.8193 385.327 88.5546 380.305C88.2143 374.037 89.1217 365.051 91.2768 353.61C100.88 301.994 144.738 172.747 145.154 171.538C147.347 165.27 148.972 159.833 149.955 155.34C151.392 148.808 152.262 141.747 147.762 138.99C142.507 135.781 135.853 141.634 129.388 148.392C121.523 156.661 107.345 181.242 85.9836 223.494C68.743 257.665 51.0866 295.009 40.538 317.286C36.001 326.915 32.7117 333.862 31.5397 336.128C29.1955 340.696 26.2843 345.756 23.7133 349.645C23.6755 349.721 23.5999 349.796 23.5621 349.91C24.3939 346.813 25.5659 342.849 27.0783 337.714C30.8591 324.989 36.1145 308.413 42.1638 289.156C51.8427 258.458 63.9036 220.209 73.8094 185.698C102.997 84.1651 101.901 71.3649 97.9311 66.4563C96.6834 64.9082 94.8686 64.1531 92.9026 64.3041C79.3672 65.3991 66.0965 73.6682 53.4685 88.9604C43.6005 100.892 34.0728 117.128 25.1501 137.216C9.68645 172.067 1.10397 206.956 0.914926 211.109C0.763692 214.394 2.6163 216.207 4.39329 216.811C6.77521 217.604 9.53522 216.697 13.6563 213.79C16.1895 212.015 19.2141 209.486 22.6925 206.276C28.515 200.877 34.8668 194.156 36.8328 191.286C38.1183 189.436 37.6646 186.944 35.8498 185.698C34.035 184.452 31.5397 184.905 30.292 186.755C29.1577 188.416 24.4317 193.665 18.5336 199.253C14.7528 202.84 11.8793 205.219 9.79988 206.729C12.333 195.817 20.0459 168.14 32.5983 139.972C55.737 88.092 77.2877 74.4234 91.8061 72.4977C91.9574 73.6682 92.0708 75.9715 91.6171 80.3515C91.0121 85.7509 89.6889 93.2649 87.6094 102.667C83.5639 120.98 76.5316 147.448 66.1343 183.583C56.2285 218.019 44.2054 256.193 34.5643 286.853C28.0613 307.431 22.4657 325.215 18.6092 338.242C16.5676 345.19 15.1309 350.363 14.2613 353.987C13.0136 359.462 12.6355 362.219 14.5637 364.144C15.7358 365.315 17.3615 365.806 19.0251 365.542C21.218 365.164 24.0536 363.654 29.8005 355.007C32.6739 350.702 36.001 345.001 38.6854 339.752C39.8953 337.411 43.0334 330.766 47.7972 320.684C67.0039 279.943 118.196 171.727 135.134 153.943C139.293 149.601 141.789 147.675 143.15 146.844C143.15 149.752 142.016 156.51 137.668 168.971C137.252 170.217 93.1672 300.106 83.4883 352.251C81.2198 364.522 80.2746 373.886 80.6527 380.871C81.1064 389.329 83.5261 394.502 88.0253 396.73C89.5376 397.485 91.1634 397.825 92.9782 397.825C102.506 397.712 116.646 386.762 138.424 362.898C159.634 339.639 185.193 296.255 208.52 243.921C231.054 193.212 247.387 143.106 252.227 109.728Z" fill="white"/>
<path d="M398.508 15.9723C399.302 11.5545 399.907 5.32436 396.051 2.41695C392.648 -0.150627 388.073 1.58626 385.124 3.88953C366.523 17.7092 345.539 67.7392 334.65 96.3224C318.657 138.423 304.593 186.263 297.522 222.323C297.409 222.625 297.371 222.964 297.333 223.266C297.144 224.21 296.955 225.154 296.804 226.098C294.12 240.484 292.002 254.304 290.339 267.293C290.339 267.331 290.301 267.368 290.301 267.406C287.276 275.789 278.883 287.192 267.843 297.915C256.274 309.129 243.532 317.927 232.984 322.005C227.539 324.119 219.94 325.97 214.571 323.024C209.164 320.042 205.875 316.492 204.627 312.263C206.026 312.301 207.614 312.226 209.353 311.848C218.768 309.847 224.893 301.389 228.409 294.63C230.98 289.684 232.341 285.681 232.568 282.359C232.719 280.206 232.454 276.242 229.052 273.863C223.38 269.936 214.004 274.089 210.79 277.639C209.429 279.149 205.27 283.756 201.716 289.797C197.066 297.726 195.251 305.127 196.272 311.735C197.444 319.286 202.283 325.441 210.601 330.048C213.739 331.784 217.369 332.653 221.452 332.577C225.724 332.54 230.488 331.482 235.706 329.481C247.237 325.026 260.962 315.624 273.287 303.654C278.959 298.142 283.949 292.516 287.995 287.116C286.218 304.259 285.235 319.249 284.668 331.029C283.42 357.422 284.063 373.508 284.1 374.187C284.176 376.34 285.953 378.001 288.07 378.001C288.146 378.001 288.184 378.001 288.259 378.001C290.452 377.888 292.191 376 292.078 373.772C292.078 373.621 291.435 357.309 292.645 331.218C293.779 307.166 296.766 269.672 304.63 227.533C304.782 226.703 304.933 225.872 305.122 225.041C330.378 186.792 371.778 87.6002 388.489 46.5189C393.896 33.2279 397.261 22.9576 398.508 15.9723ZM216.65 282.963C217.293 282.245 219.032 281.188 221.036 280.622C223.04 280.055 224.212 280.282 224.401 280.433C224.401 280.433 225.573 282.698 221.263 290.93C217.52 298.142 212.983 302.597 208.144 303.843C206.669 304.221 205.346 304.259 204.325 304.145C205.573 297.84 209.807 290.552 216.65 282.963ZM310.68 199.743C318.317 168.366 329.622 131.966 342.136 99.0788C360.095 51.8428 377.487 19.446 389.85 10.3085L389.926 10.233C390.266 9.96865 390.682 9.7421 391.06 9.51555C391.136 10.6105 391.06 12.8005 390.191 16.8407C388.754 23.2219 385.691 32.1707 381.117 43.4982C346.484 128.719 323.988 175.124 310.68 199.743Z" fill="white"/>
<path d="M736.476 242.561C734.736 241.239 732.203 241.617 730.88 243.391C717.118 261.629 703.015 274.467 688.988 281.527C684.64 283.717 673.487 288.626 663.468 287.153C660.897 286.776 658.515 285.907 656.398 284.586C652.201 281.98 649.29 279.111 647.74 275.977C652.163 275.448 660.405 273.334 667.173 265.518C670.613 261.515 673.336 257.249 675.075 253.133C677.041 248.489 677.532 244.373 676.587 241.201C675.642 238.105 673.411 235.991 670.235 235.16C665.131 233.838 657.645 239.313 654.658 241.73C649.063 246.261 644.375 251.925 641.539 257.551C635.83 265.782 597.908 320.192 583.428 333.974C579.117 338.09 577.038 338.732 576.433 338.845C576.206 338.467 575.752 337.334 575.715 334.691C575.677 332.237 576.017 329.67 576.32 328.197C576.735 326.271 578.361 320.003 580.289 312.754C583.995 298.745 589.061 279.526 590.914 270.011C591.972 264.687 592.502 260.798 592.615 258.079C592.691 256.418 592.842 252.529 589.779 251.056C589.023 250.679 586.339 249.735 583.654 252.793C583.503 252.982 583.238 253.284 582.407 254.379C558.02 285.756 546.753 294.705 542.216 297.235C541.309 297.726 540.666 297.99 540.25 298.141C540.061 297.046 540.024 294.328 541.536 288.248C542.897 282.849 544.901 277.072 546.224 273.258C546.64 272.012 546.98 271.068 547.245 270.313C549.816 262.497 550.27 258.042 548.984 254.492C548.266 252.491 546.527 251.207 544.372 251.019C541.12 250.754 536.848 253.171 531.706 258.155C528.19 261.553 522.859 267.594 517.376 276.996C512.008 286.172 508.189 291.496 505.845 294.29C505.013 290.74 504.597 283.755 506.79 270.124C507.849 263.517 509.21 257.286 510.268 252.831C511.214 248.829 511.932 246.261 511.97 246.148C512.613 244.033 511.403 241.805 509.323 241.201C507.206 240.597 504.975 241.805 504.333 243.958C504.333 243.995 503.614 246.487 502.669 250.414C502.102 251.585 499.985 255.663 494.843 260.609C484.521 270.615 470.343 276.581 460.248 279.828C456.203 281.15 452.497 282.056 449.208 282.547C451.098 276.732 451.968 270.993 451.666 266.424C451.023 257.626 446.07 251.283 439.038 250.263C432.875 249.357 427.052 252.944 424.557 259.137C423.385 262.044 422.289 266.424 422.289 271.031C422.024 270.728 421.721 270.464 421.381 270.238C419.528 269.067 417.033 269.671 415.861 271.559C415.823 271.635 415.748 271.748 415.672 271.861C415.634 271.899 415.596 271.899 415.596 271.937C415.37 272.126 391.248 290.703 363.459 302.068C354.536 305.731 347.504 306.146 344.063 303.276C343.383 302.672 342.853 301.841 342.626 300.86C340.509 292.024 341.832 284.737 346.521 279.111C350.415 274.467 355.406 272.465 357.712 271.937C357.788 273.56 357.296 276.581 356.54 279.111C355.897 281.225 357.069 283.453 359.186 284.095C361.304 284.737 363.534 283.491 364.177 281.376C364.215 281.263 364.896 278.998 365.349 276.279C366.03 271.937 365.727 268.803 364.366 266.688C363.345 265.102 361.757 264.083 359.905 263.819C357.712 263.517 354.536 264.272 351.171 265.782C348.525 266.99 344.592 269.294 341.076 273.221C336.312 278.582 331.322 288.022 334.876 302.823C335.518 305.466 336.88 307.77 338.883 309.431C341.265 311.432 345.008 313.245 350.717 313.169C354.838 313.131 359.98 312.112 366.37 309.469C383.611 302.408 399.188 292.893 409.169 286.209C407.695 291.156 407.014 296.518 408.602 300.973C410.001 304.975 413.063 307.845 417.373 309.242C419.15 309.809 420.927 310.111 422.704 310.073C426.75 310.035 430.795 308.449 434.614 305.429C439.113 301.841 442.932 296.631 445.805 290.892C450.72 290.589 456.316 289.419 462.63 287.38C480.551 281.603 492.007 274.013 499.191 267.368C499.115 267.783 499.039 268.236 498.964 268.652C497.754 276.09 497.187 282.471 497.225 287.607C497.262 294.328 498.397 299.085 500.665 302.106C501.232 303.276 502.253 304.107 503.576 304.409C505.731 304.9 508.076 304.107 512.537 298.594C515.788 294.592 519.872 288.437 524.295 280.886C531.29 268.916 538.095 262.61 541.649 260.156C541.422 262.006 540.78 264.536 539.721 267.821C539.494 268.501 539.154 269.482 538.776 270.615C532.424 288.777 529.778 300.18 535.109 304.673C537.793 306.939 541.498 306.75 546.073 304.182C555.903 298.67 571.064 281.339 583.579 265.669C583.428 266.537 583.238 267.481 583.049 268.501C581.235 277.752 576.206 296.82 572.539 310.715C570.421 318.682 568.909 324.459 568.455 326.573C568.002 328.801 567.548 332.388 567.699 335.749C567.964 340.884 569.552 344.282 572.463 345.906C573.371 346.397 574.618 346.85 576.206 346.812C577.416 346.812 578.815 346.51 580.403 345.83C582.898 344.735 585.658 342.734 588.872 339.675C600.441 328.688 625.092 294.63 638.93 275.071C639.006 275.373 639.081 275.675 639.157 275.977C640.896 281.981 645.244 287.153 652.125 291.382C655.15 293.27 658.553 294.479 662.182 295.045C663.581 295.272 665.434 295.423 667.702 295.385C673.525 295.309 682.032 293.95 692.505 288.664C707.666 280.999 722.713 267.368 737.232 248.149C738.555 246.412 738.215 243.92 736.476 242.561ZM429.737 299.198C426.334 301.879 423.12 302.71 419.944 301.653C417.298 300.784 416.504 299.312 416.126 298.254C414.122 292.628 419.037 281.49 422.591 275.75C422.629 275.713 422.629 275.675 422.667 275.637C423.272 278.998 424.633 282.245 427.128 284.963C429.661 287.682 432.95 289.494 437.034 290.363C434.992 293.912 432.497 297.046 429.737 299.198ZM440.701 282.849C437.336 282.471 434.765 281.339 433.026 279.488C430.758 277.034 428.64 270.389 431.967 262.044C432.913 259.627 434.879 258.193 437.034 258.155C437.298 258.155 437.563 258.155 437.828 258.193C440.399 258.57 443.31 261.1 443.726 267.066C444.028 271.408 442.894 277.223 440.701 282.849ZM647.059 265.102C647.399 263.932 647.891 262.724 648.458 261.515C648.647 261.251 648.76 261.062 648.836 260.987C649.101 260.571 649.327 260.156 649.441 259.703C651.445 256.191 654.356 252.642 657.872 249.47C662.863 244.977 667.06 243.089 668.307 243.014C668.723 243.165 668.837 243.316 668.912 243.656C669.631 245.997 667.664 252.755 661.124 260.307C655.755 266.5 649.252 267.821 646.378 268.085C646.53 267.104 646.756 266.122 647.059 265.102Z" fill="white"/>
<path d="M920.374 183.997C922.151 185.281 924.646 184.866 925.97 183.053C927.255 181.241 926.877 178.749 925.1 177.465C923.739 176.483 919.693 173.576 902.113 172.443C905.818 155.49 909.334 140.009 912.548 126.114C930.128 50.7099 943.513 5.55069 943.626 5.09759C944.269 2.94535 943.059 0.755361 940.942 0.113466C938.824 -0.49067 936.594 0.755361 935.951 2.86984C935.8 3.32294 922.378 48.6332 904.759 124.263C901.432 138.536 897.802 154.508 893.984 172.028C887.065 171.839 881.734 171.99 881.431 171.99H881.356C863.056 172.896 837.271 177.163 813.074 181.921C824.265 145.219 833.037 115.881 834.965 107.839C839.313 89.7899 842.224 72.119 843.358 56.7512C844.115 46.2544 844.417 32.0194 841.354 23.6748C838.594 16.1608 833.679 13.8953 830.05 13.2912C824.152 12.3095 816.855 14.9903 808.348 21.2582C799.879 27.4884 790.011 37.3811 779.009 50.5966C760.558 72.8741 741.238 108.254 731.37 127.36C725.094 139.556 719.158 151.789 714.697 161.909C707.816 177.503 708.08 179.24 708.269 180.486C708.534 182.336 709.744 183.846 711.445 184.451C713.903 185.319 716.965 184.677 724.754 178.787C728.61 175.842 732.051 172.821 732.202 172.67C733.865 171.197 734.054 168.667 732.58 167.006C731.143 165.345 728.61 165.194 726.947 166.704C724.073 169.234 720.973 171.726 718.402 173.576C721.805 165.08 729.064 149.109 739.499 129.059C748.989 110.746 767.59 76.8765 785.134 55.7318C812.582 22.6553 824.719 20.5786 828.651 21.2582C829.521 21.4093 832.129 21.8246 833.868 26.5822C837.612 36.8525 836.553 67.4747 827.252 106.102C825.286 114.22 815.985 145.295 804.227 183.733C789.86 186.678 776.475 189.623 766.154 192.002C741.881 197.59 723.241 202.424 714.319 204.765C691.596 210.806 690.84 211.599 689.932 212.505C688.609 213.864 688.269 215.752 689.025 217.414C690.348 220.208 693.751 220.17 696.473 220.17C696.549 220.17 696.624 220.17 696.7 220.17C698.666 220.132 701.313 220.019 704.526 219.755C710.122 219.339 715.528 218.698 715.755 218.698C717.948 218.433 719.574 216.47 719.347 214.242C719.271 213.374 718.893 212.618 718.364 212.014C731.748 208.503 749.821 203.972 770.35 199.29C778.971 197.326 789.822 194.91 801.58 192.493C777.156 272.315 744.301 377.585 743.809 379.209C743.129 381.323 744.301 383.589 746.418 384.231C746.834 384.344 747.212 384.42 747.628 384.42C749.329 384.382 750.917 383.287 751.446 381.55C753.526 374.867 786.495 269.294 810.503 190.718C835.343 185.772 862.754 181.09 881.696 180.108C882.15 180.108 886.573 179.995 892.358 180.108C877.915 247.281 860.977 335.485 846.837 435.469C846.534 437.659 848.047 439.698 850.239 439.962C850.428 440 850.618 440 850.807 440C852.773 439.962 854.474 438.49 854.776 436.489C868.992 336.089 886.006 247.583 900.487 180.41C915.459 181.279 919.466 183.356 920.374 183.997Z" fill="white"/>
<path d="M1259.55 232.744C1257.89 231.309 1255.36 231.498 1253.92 233.197C1253.58 233.612 1218.72 273.41 1186.54 273.825C1185.67 273.825 1184.81 273.825 1183.94 273.787C1174.86 273.296 1168.47 270.087 1165.52 264.612C1164.99 263.63 1164.58 262.573 1164.28 261.44C1168.59 261.742 1174.9 260.798 1181.74 255.059C1186.88 250.755 1190.93 245.317 1193.16 239.691C1195.43 233.99 1195.51 229.081 1193.35 226.174C1191.61 223.87 1188.02 222.738 1183.52 223.115C1180.04 223.38 1168.13 225.381 1160.38 239.314C1160 240.031 1159.63 240.749 1159.28 241.466C1159.17 241.541 1159.1 241.655 1159.02 241.73C1158.6 242.146 1118.64 284.699 1094.59 307.77C1083.71 318.229 1080.3 317.361 1080.27 317.323C1079.62 316.87 1079.24 313.698 1079.66 311.81C1080.23 309.96 1085.56 297.651 1090.74 285.794C1098.83 267.217 1107.98 246.148 1110.44 238.936C1111.57 235.576 1112.06 232.895 1111.87 230.743C1111.61 227.08 1109.53 225.532 1108.32 224.965C1104.88 223.304 1100.61 225.23 1099.17 227.269C1097.62 229.308 1075.09 256.154 1056.07 271.408C1053.31 273.598 1051.8 274.24 1051.15 274.429C1050.85 273.523 1050.32 270.767 1051.64 263.743C1052.67 258.268 1054.22 253.36 1054.48 252.718C1055.05 251.396 1056.64 246.563 1057.77 241.655C1059.66 233.574 1059.51 229.534 1057.16 227.269C1055.54 225.721 1053.19 225.456 1050.93 226.551C1049.79 227.118 1046.31 228.779 1032.89 243.316C1026.31 250.452 1019.7 258.117 1017.92 260.534C1015.46 263.819 1013.68 265.933 1012.4 267.293C1013.16 258.533 1017.13 236.142 1021.21 216.092C1021.66 213.902 1020.26 211.826 1018.11 211.372C1015.95 210.957 1013.84 212.392 1013.38 214.544C1013.38 214.62 1012.25 220.057 1010.81 227.533C999.167 239.2 976.595 250.15 968.617 251.661L968.391 251.698C963.589 252.907 959.241 253.624 955.384 253.851C958.863 244.109 958.636 235.425 954.628 229.534C951.982 225.645 947.029 223.115 942 223.078C937.048 223.04 932.662 225.268 929.599 229.421C928.049 231.498 927.104 234.934 926.99 238.672C925.176 239.993 921.924 242.636 918.862 246.337C912.661 253.813 910.052 262.158 911.3 270.54C912.472 278.469 917.614 280.357 920.563 280.735C921.206 280.81 921.811 280.848 922.453 280.848C928.881 280.773 935.951 276.355 939.77 273.523C944.685 269.936 948.919 265.707 951.528 261.931C956.594 262.082 962.757 261.402 970.168 259.552C975.272 258.533 983.779 255.021 992.399 250.301C996.331 248.149 1002.53 244.524 1008.51 240.031C1003.67 266.802 1004.23 270.502 1004.42 271.899C1005.03 275.939 1007.41 277.11 1008.81 277.412C1012.85 278.394 1017.05 275.109 1024.31 265.292C1025.78 263.29 1031.98 256.041 1038.71 248.753C1044.57 242.41 1048.36 238.747 1050.7 236.633C1050.51 237.841 1050.17 239.314 1049.72 241.202C1048.66 245.355 1047.45 248.98 1047.15 249.66C1046.62 250.906 1044.76 256.909 1043.67 263.139C1041.97 272.73 1042.84 278.432 1046.35 281.112C1051.68 285.153 1058.71 279.527 1061.02 277.676C1077.96 264.121 1096.98 242.372 1103.48 234.594C1103.33 235.123 1103.14 235.727 1102.91 236.444C1100.57 243.354 1091.08 265.178 1083.44 282.698C1074.67 302.899 1072.25 308.563 1071.91 310.111C1071.27 313.018 1070.81 321.287 1076.33 324.384C1077.62 325.101 1079.02 325.441 1080.53 325.441C1085.45 325.365 1091.83 321.514 1100.08 313.585C1117.2 297.16 1142.31 270.955 1155.66 256.909C1155.69 261.1 1156.64 265.065 1158.53 268.539C1161.55 274.127 1168.32 280.999 1183.44 281.83C1184.47 281.905 1185.49 281.905 1186.54 281.905C1194.37 281.792 1202.8 279.753 1211.65 275.751C1219.48 272.239 1227.68 267.179 1236 260.761C1250.06 249.886 1259.59 238.936 1260.01 238.483C1261.37 236.746 1261.22 234.216 1259.55 232.744ZM1105.71 231.724C1105.63 231.875 1105.52 231.989 1105.45 232.064C1105.56 231.913 1105.67 231.762 1105.71 231.724ZM935.044 267.028C929.675 270.955 924.533 273.145 921.622 272.73C920.903 272.617 919.58 272.466 919.089 269.181C918.181 263.139 920.071 257.211 924.722 251.547C925.932 250.075 927.217 248.791 928.352 247.734C928.881 249.093 929.524 250.452 930.431 251.812C932.662 255.21 936.329 258.608 942.378 260.458C940.375 262.724 937.766 265.027 935.044 267.028ZM946.991 253.36C946.764 253.322 946.537 253.247 946.311 253.209C942.152 252.265 939.089 250.301 937.161 247.432C933.569 242.032 935.081 235.274 935.913 234.179C937.388 232.177 939.316 231.158 941.584 231.12C941.66 231.12 941.698 231.12 941.774 231.12C944.647 231.158 947.029 232.706 948.012 234.141C950.734 238.181 950.356 245.28 946.991 253.36ZM1099.06 227.344C1099.06 227.306 1099.09 227.307 1099.09 227.269C1099.09 227.307 1099.09 227.306 1099.06 227.344ZM1167.34 243.127C1171.69 235.274 1177.7 232.593 1180.91 231.686C1183.97 230.818 1186.05 231.045 1186.88 231.271C1187 232.253 1186.73 234.481 1185.41 237.539C1183.6 241.655 1180.5 245.657 1176.68 248.867C1171.04 253.586 1166.28 253.662 1163.86 253.284C1164.31 249.962 1165.49 246.488 1167.34 243.127Z" fill="white"/>
</g>
<defs>
<clipPath id="clip0_420_17939">
<rect width="1260" height="440" fill="white" transform="translate(0.914062)"/>
</clipPath>
</defs>
</svg>
